<svg width="149" height="21" viewBox="0 0 149 21" fill="none" xmlns="http://www.w3.org/2000/svg">
<path d="M10.7587 5.0707C10.7587 2.407 8.63062 0.242188 6.01074 0.242188C3.38193 0.242188 1.25384 2.407 1.25384 5.0707C1.25384 7.26224 2.68449 9.10634 4.65163 9.69431V12.9994H1.25384C1.06607 12.9994 0.914062 13.1509 0.914062 13.3469V15.0663C0.914062 15.2622 1.06607 15.4137 1.25384 15.4137H4.64269V18.8614L6.01074 20.2422L7.03008 19.2088L6.01074 18.1754V15.4137V12.9994V10.9326H7.36986V9.69431C9.32806 9.10634 10.7587 7.25333 10.7587 5.0707ZM6.01074 5.43596C5.1613 5.43596 4.4728 4.73217 4.4728 3.86803C4.4728 3.00388 5.1613 2.3001 6.01074 2.3001C6.86019 2.3001 7.54869 3.00388 7.54869 3.86803C7.54869 4.74108 6.86019 5.43596 6.01074 5.43596Z" fill="#202945"/>
<path d="M10.7591 13.0083H7.36133V15.4226H10.7591C10.9469 15.4226 11.0989 15.2711 11.0989 15.0751V13.3557C11.1078 13.1597 10.9558 13.0083 10.7591 13.0083Z" fill="#202945"/>
<path d="M29.8602 11.6781L29.6278 11.6009L29.8473 11.5109C31.1383 10.9835 31.7839 10.0702 31.7839 8.80963C31.7839 6.41708 30.17 5.3623 26.5293 5.3623H20.5V18.7657H26.426C30.6348 18.7657 32.3519 17.6466 32.3519 14.8811C32.3519 13.3117 31.5127 12.2312 29.8602 11.6781ZM24.399 7.74199H26.1548C26.7616 7.74199 27.1877 7.88349 27.4717 8.16648C27.7299 8.4366 27.8461 8.8225 27.8332 9.33702C27.8332 10.4047 27.1877 10.8935 25.8192 10.8935H24.399V7.74199ZM26.0774 16.386H24.399V12.8487H26.1548C26.9166 12.8487 27.4588 13.0159 27.7945 13.3632C28.0914 13.659 28.2335 14.0835 28.2205 14.6624C28.2205 15.8458 27.5363 16.386 26.0774 16.386Z" fill="#202945"/>
<path d="M40.3307 5.07935C36.0056 5.07935 33.0878 7.89638 33.0878 12.0898C33.0878 16.2574 35.9282 19.0616 40.1628 19.0616C44.4879 19.0616 47.4057 16.2446 47.4057 12.0512C47.4186 7.87066 44.5654 5.07935 40.3307 5.07935ZM43.1968 12.2699C43.1968 14.8425 42.2027 16.1417 40.2532 16.1417C38.3295 16.1417 37.3096 14.8039 37.3096 12.2827V11.8582C37.3096 9.32419 38.3295 7.98642 40.2532 7.98642C42.1769 7.98642 43.1968 9.32419 43.1968 11.8454V12.2699Z" fill="#202945"/>
<path d="M55.3457 15.64L56.3528 18.7657H60.5745L55.9913 5.3623H51.4984L46.7989 18.7657H50.0007L51.0078 15.64H55.3457ZM53.2929 8.73245L54.7389 13.3889H51.6791L53.2929 8.73245Z" fill="#202945"/>
<path d="M69.5087 18.0067C69.5216 18.264 69.5345 18.6113 69.5474 18.7657H73.6142C73.5884 18.4698 73.5368 17.7109 73.4593 17.2478C73.0462 14.2378 72.0521 12.9258 69.9347 12.5527L69.4699 12.4756L69.9347 12.3855C72.0908 11.9482 73.2656 10.7133 73.2656 8.88674C73.2656 7.24025 72.6201 5.34937 67.585 5.34937H61.7752V18.7528H65.7259V13.8648H66.72C68.8502 13.9034 69.3279 15.9743 69.5087 18.0067ZM65.7388 7.70332H66.9782C68.6695 7.70332 69.4441 8.32076 69.4441 9.65853C69.4441 11.0349 68.4242 11.8967 66.7716 11.9224L65.7388 12.0382V7.70332Z" fill="#202945"/>
<path d="M87.9331 12.1026C87.9331 6.53285 84.0728 5.3623 80.8322 5.3623H74.9062V18.7657H80.6256C85.2735 18.7657 87.9331 16.3346 87.9331 12.1026ZM78.9473 16.1802V7.96066H80.5095C82.8592 7.96066 83.7758 9.10549 83.7758 12.0383V12.1155C83.7758 15.0354 82.8463 16.1802 80.4578 16.1802H78.9473Z" fill="#202945"/>
<path d="M96.7491 18.007C96.762 18.2642 96.7749 18.6115 96.7878 18.7659H100.855C100.829 18.47 100.777 17.7111 100.7 17.248C100.287 14.2381 99.2925 12.926 97.1751 12.553L96.7104 12.4758L97.1751 12.3858C99.3312 11.9484 100.506 10.7136 100.506 8.88698C100.506 7.2405 99.8605 5.34961 94.8254 5.34961H89.0156V18.753H92.9663V13.865H93.9604C96.0777 13.9036 96.5554 15.9746 96.7491 18.007ZM92.9663 7.70357H94.2057C95.897 7.70357 96.6716 8.321 96.6716 9.65877C96.6716 11.0351 95.6517 11.897 93.9991 11.9227L92.9663 12.0385V7.70357Z" fill="#202945"/>
<path d="M108.241 19.0487C112.566 19.0487 115.484 16.2316 115.484 12.0382C115.484 7.87058 112.644 5.06641 108.409 5.06641C104.071 5.06641 101.166 7.88344 101.166 12.0768C101.166 16.2574 104.006 19.0487 108.241 19.0487ZM105.375 11.8582C105.375 9.32412 106.395 7.98635 108.318 7.98635C110.242 7.98635 111.262 9.32412 111.262 11.8453V12.2698C111.262 14.8424 110.268 16.1416 108.318 16.1416C106.395 16.1416 105.375 14.8038 105.375 12.2826V11.8582Z" fill="#202945"/>
<path d="M123.63 5.0791C119.305 5.0791 116.387 7.89614 116.387 12.0895C116.387 16.2572 119.227 19.0614 123.462 19.0614C127.787 19.0614 130.705 16.2443 130.705 12.0509C130.705 7.87041 127.864 5.0791 123.63 5.0791ZM126.496 12.2696C126.496 14.8423 125.502 16.1414 123.552 16.1414C121.628 16.1414 120.608 14.8037 120.608 12.2825V11.858C120.608 9.32395 121.628 7.98618 123.552 7.98618C125.476 7.98618 126.496 9.32395 126.496 11.8451V12.2696Z" fill="#202945"/>
<path d="M140.866 18.7657L144.068 7.7034V18.7657H148.019V5.3623H141.886L139.911 12.6686L137.948 5.3623H131.738V18.7657H134.85V7.75485L137.961 18.7657H140.866Z" fill="#202945"/>
</svg>
